<svg xmlns="http://www.w3.org/2000/svg" width="518.022" height="139.945" viewBox="0 0 518.022 139.945">
  <g id="Grupo_577" data-name="Grupo 577" transform="translate(-232.494 -440.675)">
    <path id="Trazado_124" data-name="Trazado 124" d="M350.353,503.13a4.074,4.074,0,0,1-4.06-3.772c-2.38-32.025-16.918-45.439-22.647-49.528-20.641,19.444-23.225,47.274-23.248,47.563a4.075,4.075,0,0,1-8.122-.67c.111-1.352,3-33.358,28.273-55.064a4.073,4.073,0,0,1,4.477-.554c1.065.533,26.117,13.547,29.394,57.648a4.074,4.074,0,0,1-3.761,4.365C350.556,503.127,350.454,503.13,350.353,503.13Z" transform="translate(-13.944)" fill="#ffaf00"/>
    <path id="Trazado_125" data-name="Trazado 125" d="M360.3,587.285a4.075,4.075,0,0,1-1.758-7.753c19.4-9.253,32.438-24.086,38.765-44.09a83.255,83.255,0,0,0,3.836-24.665c-38.657-4.754-62.229,29.98-62.469,30.341a4.075,4.075,0,1,1-6.787-4.511,87.76,87.76,0,0,1,19.506-19.725c16.618-12.286,35.438-17,54.416-13.643a4.075,4.075,0,0,1,3.347,3.642,86.3,86.3,0,0,1-3.977,30.694c-4.807,15.4-16.191,36.462-43.127,49.312A4.064,4.064,0,0,1,360.3,587.285Z" transform="translate(-23.03 -14.351)" fill="#686969"/>
    <path id="Trazado_126" data-name="Trazado 126" d="M318.883,547.787c-3.807-5.546-6.855-9.345-9.214-12.166l-.033.038c-1.577-1.819-3.281-3.683-5.089-5.584l-.03-.026,0,0c-1.059-1.113-2.144-2.236-3.285-3.377-.192-.192-.386-.375-.579-.564A108.433,108.433,0,0,0,288.5,516.071c-.513-.352-1.027-.7-1.545-1.041h.028a76.494,76.494,0,0,0-7.958-4.708h-.178c-1.815-.925-3.649-1.766-5.492-2.541-.452-.174-.9-.35-1.359-.513l.1,0c-.539-.216-1.078-.432-1.618-.635a67.825,67.825,0,0,0-33.726-4.045,4.173,4.173,0,0,0-3.6,3.518,67.765,67.765,0,0,0,4.032,33.818,87.015,87.015,0,0,0,20.039,30.754,91.162,91.162,0,0,0,10.557,9.054,86.547,86.547,0,0,0,11.654,7.2,4.155,4.155,0,0,0,3.78-7.4,78.132,78.132,0,0,1-10.511-6.514,82.788,82.788,0,0,1-9.581-8.24,78.619,78.619,0,0,1-18.149-27.754,60.79,60.79,0,0,1-3.95-26.55,60.794,60.794,0,0,1,26.548,3.95,74.162,74.162,0,0,1,12.427,6.068,4.211,4.211,0,0,0,1.155.716,81.986,81.986,0,0,1,14.172,11.367c3.374,3.373,6.347,6.586,8.959,9.641-11.51,15.1-14.855,27-13.791,35.5,1.434,11.47,10.272,17.2,19.114,17.2s17.683-5.743,19.124-17.212c.924-7.35-1.448-17.232-9.532-29.525Zm1.579,28.9a10.885,10.885,0,0,1-21.681.012c-.8-6.441,1.888-15.657,10.854-27.795C318.586,561.036,321.272,570.248,320.463,576.689Z" transform="translate(0 -14.292)" fill="#fff" fill-rule="evenodd"/>
    <g id="Grupo_492" data-name="Grupo 492" transform="translate(403.321 494.043)">
      <path id="Trazado_127" data-name="Trazado 127" d="M471.616,581.31a30.313,30.313,0,0,1-12.025-12.764,46.578,46.578,0,0,1-.049-38.933,30.1,30.1,0,0,1,11.927-12.764,35.054,35.054,0,0,1,17.84-4.435,36.7,36.7,0,0,1,14.636,2.858,28.033,28.033,0,0,1,11.187,8.674,31.6,31.6,0,0,1,6.012,14.193h-13.5q-1.773-7.1-6.653-10.6a19.518,19.518,0,0,0-11.68-3.5,18.23,18.23,0,0,0-17.693,11.631,33.8,33.8,0,0,0-2.414,13.4,34.157,34.157,0,0,0,2.414,13.454,18.7,18.7,0,0,0,6.949,8.625,19.223,19.223,0,0,0,10.744,2.956,20.49,20.49,0,0,0,8.624-1.823,16.959,16.959,0,0,0,6.7-5.519,19.943,19.943,0,0,0,3.5-9.018H521.44a31.6,31.6,0,0,1-5.519,15.277,28.763,28.763,0,0,1-11.483,9.511,35.715,35.715,0,0,1-15.129,3.2A34.94,34.94,0,0,1,471.616,581.31Z" transform="translate(-455.304 -510.78)" fill="#fff"/>
      <path id="Trazado_128" data-name="Trazado 128" d="M551.464,514.471h12.419v70.177H551.464Z" transform="translate(-477.739 -511.26)" fill="#fff"/>
      <path id="Trazado_129" data-name="Trazado 129" d="M626.507,539.668v50.858H614.483v-7.392a19.992,19.992,0,0,1-6.7,6.259,18.307,18.307,0,0,1-9.265,2.316,19.958,19.958,0,0,1-9.314-2.07,14.516,14.516,0,0,1-6.209-6.209,21.039,21.039,0,0,1-2.218-10.054V539.668h12.419v31.639q0,4.83,2.366,7.244t7.2,2.415a11.551,11.551,0,0,0,5.47-1.381,10.5,10.5,0,0,0,4.238-4.238,14.378,14.378,0,0,0,1.626-7.195V539.668Z" transform="translate(-484.577 -517.139)" fill="#fff"/>
      <path id="Trazado_130" data-name="Trazado 130" d="M693.8,535.859a20.911,20.911,0,0,1,7.935,9.314,37.128,37.128,0,0,1,0,28.091,20.908,20.908,0,0,1-7.935,9.315,22.219,22.219,0,0,1-12.074,3.252,19.638,19.638,0,0,1-9.512-2.218,18.618,18.618,0,0,1-6.751-6.258v7.293H653.537V514.471h12.419v25.922a18.213,18.213,0,0,1,6.6-5.766,19.842,19.842,0,0,1,9.167-2.021A22.211,22.211,0,0,1,693.8,535.859Zm-5.421,35.335q3.5-4.384,3.5-12.369,0-7.885-3.45-11.927t-9.66-4.041a11.847,11.847,0,0,0-9.609,4.189q-3.5,4.19-3.5,12.172t3.5,12.173a11.842,11.842,0,0,0,9.609,4.189A11.622,11.622,0,0,0,688.379,571.194Z" transform="translate(-501.553 -511.26)" fill="#fff"/>
      <path id="Trazado_131" data-name="Trazado 131" d="M761.178,586.882a38.293,38.293,0,0,1-19.088-4.7h0a32.7,32.7,0,0,1-12.96-13.422,42.68,42.68,0,0,1-4.576-20.182,43.785,43.785,0,0,1,4.468-20.214,31.807,31.807,0,0,1,12.824-13.441,38.969,38.969,0,0,1,19.332-4.644,40.432,40.432,0,0,1,16.173,3.19,30.9,30.9,0,0,1,12.324,9.569,33.47,33.47,0,0,1,6.331,15.325,1.634,1.634,0,0,1-1.612,1.894H777.539a1.633,1.633,0,0,1-1.58-1.219,14.147,14.147,0,0,0-5.295-8.26,15.771,15.771,0,0,0-9.486-2.841,14.123,14.123,0,0,0-14.063,9.338,33.928,33.928,0,0,0,0,22.652,14.165,14.165,0,0,0,14.065,9.294,16.6,16.6,0,0,0,7.048-1.474,13.577,13.577,0,0,0,5.238-4.318,16.491,16.491,0,0,0,2.86-7.047,1.634,1.634,0,0,1,1.609-1.353h16.657a1.633,1.633,0,0,1,1.622,1.825,34.685,34.685,0,0,1-5.961,16.331,30.954,30.954,0,0,1-12.426,10.243A39.631,39.631,0,0,1,761.178,586.882Zm0-73.331a35.743,35.743,0,0,0-17.73,4.225,28.592,28.592,0,0,0-11.521,12.088,40.569,40.569,0,0,0-4.106,18.718,39.475,39.475,0,0,0,4.2,18.652,29.5,29.5,0,0,0,11.68,12.107h0a35.071,35.071,0,0,0,17.48,4.273,36.388,36.388,0,0,0,15.285-3.153,27.716,27.716,0,0,0,11.132-9.174,30.582,30.582,0,0,0,5.116-12.988H779.267a19.112,19.112,0,0,1-3.174,7.073,16.813,16.813,0,0,1-6.49,5.341,19.842,19.842,0,0,1-8.425,1.779A17.415,17.415,0,0,1,744.1,561.184a37.126,37.126,0,0,1,0-25.151,17.374,17.374,0,0,1,17.084-11.361,18.962,18.962,0,0,1,11.408,3.466,17.1,17.1,0,0,1,6.178,8.854h13.663a29.432,29.432,0,0,0-5.339-11.957,27.662,27.662,0,0,0-11.036-8.566A37.2,37.2,0,0,0,761.178,513.551Z" transform="translate(-518.122 -510.283)" fill="#fff"/>
      <path id="Trazado_132" data-name="Trazado 132" d="M886.808,585.785H868.87a1.633,1.633,0,0,1-1.393-.78l-17.15-27.993c-1.983-3.237-3.962-6.547-5.883-9.837q-.976-1.671-1.876-3.282c.159,8.161.239,16.731.239,25.571v14.686a1.634,1.634,0,0,1-1.634,1.634H825.3a1.633,1.633,0,0,1-1.633-1.634V513.974a1.633,1.633,0,0,1,1.633-1.634h17.939a1.633,1.633,0,0,1,1.393.78l17.15,27.993c3.051,4.99,5.645,9.423,7.758,13.254-.159-8.176-.239-16.793-.239-25.706V513.974a1.634,1.634,0,0,1,1.634-1.634h15.869a1.634,1.634,0,0,1,1.634,1.634v70.177A1.634,1.634,0,0,1,886.808,585.785Zm-17.024-3.268h15.39V515.608h-12.6V528.66c0,11.456.133,22.418.394,32.582a1.634,1.634,0,0,1-3.1.765c-2.4-4.858-6.053-11.314-10.869-19.19l-16.671-27.21H826.938v66.909h12.6V569.465c0-11.34-.133-22.236-.393-32.385a1.633,1.633,0,0,1,3.094-.772c1.421,2.843,3.111,5.945,5.025,9.219s3.876,6.561,5.848,9.778Z" transform="translate(-541.246 -510.763)" fill="#fff"/>
    </g>
  </g>
</svg>
